<svg xmlns="http://www.w3.org/2000/svg" viewBox="0 0 210 210"><path d="M137.662,43.55a30.975,30.975,0,0,1,30.944,30.944v63.062A30.975,30.975,0,0,1,137.662,168.5H74.6a30.974,30.974,0,0,1-30.943-30.944V74.494A30.974,30.974,0,0,1,74.6,43.55h63.063m0-14.7H74.6A45.643,45.643,0,0,0,28.956,74.494h0v63.062A45.643,45.643,0,0,0,74.6,183.2h63.063a45.643,45.643,0,0,0,45.644-45.644h0V74.494A45.643,45.643,0,0,0,137.662,28.85Z"></path><path d="M105.606,79.25a26.25,26.25,0,1,1-26.25,26.25h0a26.251,26.251,0,0,1,26.25-26.25m0-13.65a39.9,39.9,0,1,0,39.9,39.9A39.9,39.9,0,0,0,105.606,65.6Z"></path><path d="M147.606,55.1a9.45,9.45,0,1,0,9.45,9.45A9.45,9.45,0,0,0,147.606,55.1Z"></path></svg>