<svg xmlns="http://www.w3.org/2000/svg" viewBox="0 0 210 210"><g><path d="M134.011,80.035a1.258,1.258,0,0,1-1.26-1.259V50.516a27,27,0,0,0-54,0v28.26a1.26,1.26,0,0,1-2.519,0V50.516a29.52,29.52,0,0,1,59.039,0v28.26A1.258,1.258,0,0,1,134.011,80.035Z"></path><path d="M49.618,186a8.323,8.323,0,0,1-8.309-8.3c0-.17.005-.332.015-.5L47.6,64.18a8.313,8.313,0,0,1,8.3-7.857H155.6a8.31,8.31,0,0,1,8.3,7.857l6.28,113.033a8.315,8.315,0,0,1-7.823,8.775c-.165.01-.327.012-.487.012H49.618ZM55.906,58.842a5.793,5.793,0,0,0-5.788,5.476L43.828,177.7a5.8,5.8,0,0,0,5.795,5.781h.01l112.577-.007a5.8,5.8,0,0,0,5.447-6.121L161.376,64.318h0a5.791,5.791,0,0,0-5.783-5.476H55.906Z"></path></g></svg>