<svg viewBox="0 0 40 40" xmlns="http://www.w3.org/2000/svg"><path d="M31.8012 9.11524C29.5674 8.11284 27.2092 7.40171 24.7868 7C24.4553 7.58081 24.1554 8.17838 23.8882 8.79022C21.3079 8.40912 18.6839 8.40912 16.1036 8.79022C15.8363 8.17845 15.5364 7.58088 15.2051 7C12.7811 7.4051 10.4214 8.11792 8.18527 9.12048C3.74608 15.558 2.54268 21.8355 3.14438 28.024C5.74408 29.9066 8.65389 31.3384 11.7473 32.2571C12.4439 31.3389 13.0602 30.3647 13.5899 29.345C12.5839 28.9768 11.613 28.5224 10.6883 27.9873C10.9317 27.8143 11.1697 27.6361 11.3997 27.4631C14.0902 28.7032 17.0268 29.3462 19.9999 29.3462C22.9731 29.3462 25.9097 28.7032 28.6002 27.4631C28.8329 27.6492 29.0709 27.8274 29.3115 27.9873C28.3851 28.5233 27.4124 28.9785 26.4047 29.3477C26.9337 30.3669 27.55 31.3402 28.2472 32.2571C31.3433 31.3421 34.2553 29.911 36.8555 28.0266C37.5615 20.85 35.6494 14.6301 31.8012 9.11524ZM14.352 24.2181C12.6753 24.2181 11.29 22.7267 11.29 20.8919C11.29 19.0571 12.6271 17.5526 14.3467 17.5526C16.0662 17.5526 17.4407 19.0571 17.4113 20.8919C17.3819 22.7267 16.0608 24.2181 14.352 24.2181ZM25.6479 24.2181C23.9685 24.2181 22.5886 22.7267 22.5886 20.8919C22.5886 19.0571 23.9257 17.5526 25.6479 17.5526C27.3701 17.5526 28.7339 19.0571 28.7045 20.8919C28.6751 22.7267 27.3567 24.2181 25.6479 24.2181Z"></path></svg>