<svg xmlns="http://www.w3.org/2000/svg" viewBox="0 0 210 210"><defs><style>.btn-icon-mail-1{fill:none;}</style></defs><rect class="btn-icon-mail-1" x="5" y="4" width="200" height="200"></rect><path fill="rgb(142,141,141)" d="M54.58,158.71A14,14,0,0,1,40.7,144.83V70.54A13.94,13.94,0,0,1,54.57,56.66h99.06A14,14,0,0,1,167.5,70.53v74.3a14,14,0,0,1-13.88,13.88Zm0-99.05A10.94,10.94,0,0,0,43.7,70.54v74.29a10.94,10.94,0,0,0,10.88,10.88h99a11,11,0,0,0,10.88-10.89V70.54a10.94,10.94,0,0,0-10.87-10.88Z"></path><path fill="rgb(142,141,141)"  d="M104.1,115.37a1.51,1.51,0,0,1-.86-.27L41.34,71.76a1.5,1.5,0,1,1,1.72-2.45l61,42.73,61-42.73a1.5,1.5,0,1,1,1.72,2.45L105,115.1A1.51,1.51,0,0,1,104.1,115.37Z"></path></svg>