<svg xmlns="http://www.w3.org/2000/svg" viewBox="0 0 210 210"><g><path fill="rgb(142,141,141)" d="M105.432,161.3a1.3,1.3,0,0,1-1.3-1.3V57.274a1.3,1.3,0,0,1,.579-1.082c10.077-6.719,23.709-10.419,38.387-10.419s28.31,3.7,38.387,10.419a1.3,1.3,0,0,1,.579,1.082V160a1.3,1.3,0,0,1-.8,1.2,1.28,1.28,0,0,1-.5.1,1.293,1.293,0,0,1-.92-.381c-6.01-6.01-21.427-9.894-39.279-9.894a100.164,100.164,0,0,0-15.723,1.179c-9.868,1.6-16.35,4.576-18.249,8.377A1.294,1.294,0,0,1,105.432,161.3Zm35.012-12.863c16.559,0,31.553,3.407,39.021,8.773V57.976c-9.613-6.207-22.508-9.621-36.367-9.621s-26.753,3.414-36.366,9.621v98.343c3.452-3.059,9.5-5.353,17.7-6.682A102.086,102.086,0,0,1,140.444,148.437Z"></path><path fill="rgb(142,141,141)"  d="M105.432,160.5a.453.453,0,0,1-.115-.014.5.5,0,0,1-.385-.486V57.274a.5.5,0,0,1,.223-.416c20.567-13.714,55.32-13.713,75.887,0a.5.5,0,0,1,.223.416V160a.5.5,0,0,1-.854.354c-9.114-9.116-36.665-12.028-55.7-8.94-10.128,1.644-16.819,4.772-18.837,8.81A.5.5,0,0,1,105.432,160.5Zm35.012-11.264c15.731,0,32.371,3.186,39.821,9.618V57.542c-20.22-13.315-54.114-13.316-74.333,0V158.308c2.882-3.615,9.384-6.382,18.624-7.881A100.668,100.668,0,0,1,140.444,149.236Z"></path><path fill="rgb(142,141,141)"  d="M105.43,161.3a1.293,1.293,0,0,1-1.163-.719c-1.9-3.8-8.381-6.776-18.248-8.377A100.168,100.168,0,0,0,70.3,151.025c-17.851,0-33.269,3.884-39.278,9.894a1.3,1.3,0,0,1-.92.381,1.283,1.283,0,0,1-.493-.1A1.3,1.3,0,0,1,28.8,160V57.274a1.3,1.3,0,0,1,.578-1.082c10.079-6.719,23.712-10.42,38.389-10.42s28.309,3.7,38.385,10.42a1.294,1.294,0,0,1,.579,1.082V160a1.3,1.3,0,0,1-1,1.266A1.263,1.263,0,0,1,105.43,161.3ZM31.4,157.21c7.468-5.365,22.462-8.773,39.022-8.773a102.123,102.123,0,0,1,16.016,1.2c8.191,1.329,14.244,3.622,17.695,6.682V57.976c-9.612-6.206-22.5-9.62-36.365-9.62S41.012,51.77,31.4,57.976Z"></path><path fill="rgb(142,141,141)"  d="M105.43,160.5a.5.5,0,0,1-.448-.276c-2.018-4.037-8.707-7.166-18.836-8.81-19.027-3.088-46.581-.176-55.695,8.94A.5.5,0,0,1,29.6,160V57.274a.5.5,0,0,1,.222-.416c20.569-13.714,55.321-13.714,75.887,0a.5.5,0,0,1,.223.416V160a.5.5,0,0,1-.386.486A.445.445,0,0,1,105.43,160.5ZM30.6,57.542V158.854c10.082-8.706,37-11.462,55.709-8.427,9.239,1.5,15.741,4.266,18.623,7.881V57.542C84.712,44.227,50.819,44.227,30.6,57.542Z"></path></g></svg>