<svg viewBox="0 0 38 38" xmlns="http://www.w3.org/2000/svg"><path d="M15.9054 15.3057C15.177 14.8057 14.4565 14.3111 13.7217 13.8067C13.8217 13.6691 13.9137 13.5342 14.0138 13.4058C14.7523 12.46 15.6847 11.7788 16.8217 11.3766C17.2864 11.2122 17.7642 11.1075 18.2524 11.0417C18.7758 10.9713 19.3016 10.962 19.8265 10.9947C20.7165 11.0501 21.5756 11.2393 22.387 11.6223C23.2761 12.0422 23.9769 12.6746 24.5428 13.467C25.1055 14.2549 25.4218 15.1428 25.6253 16.0767C25.7138 16.4825 25.7769 16.8927 25.804 17.3079C25.8125 17.4378 25.8283 17.5671 25.8421 17.7092C25.9342 17.7535 26.0334 17.8038 26.1349 17.8495C26.9258 18.2056 27.6502 18.663 28.2916 19.2468C28.7346 19.65 29.1485 20.0796 29.4861 20.576C30.0334 21.3806 30.3815 22.2659 30.5756 23.2157C30.725 23.9468 30.7607 24.6854 30.708 25.4247C30.6387 26.3965 30.3918 27.3279 29.9757 28.2134C29.7565 28.6798 29.5054 29.1284 29.1953 29.5396C28.971 29.8371 28.7249 30.1191 28.4777 30.3987C28.0617 30.8692 27.5956 31.2886 27.0953 31.668C26.6614 31.9971 26.2018 32.2901 25.7259 32.5566C24.7758 33.0887 23.755 33.4275 22.6938 33.6568C22.1332 33.7779 21.5665 33.8619 20.9955 33.9124C20.6472 33.9432 20.2976 33.9642 19.948 33.9762C19.5294 33.9908 19.1094 34.0113 18.6916 33.9924C18.1538 33.9679 17.617 33.9148 17.0811 33.8597C16.4519 33.7951 15.8326 33.67 15.2203 33.5129C14.4028 33.3031 13.6102 33.0232 12.8565 32.6435C12.2779 32.3521 11.7296 32.0109 11.2034 31.6324C10.7677 31.3189 10.3657 30.9688 9.98902 30.5902C9.62257 30.2218 9.28833 29.8248 8.96814 29.4157C8.48135 28.7936 8.08284 28.1181 7.73703 27.4118C7.29518 26.5093 6.96182 25.5668 6.69858 24.5975C6.5412 24.0182 6.4087 23.435 6.31603 22.843C6.25337 22.4428 6.19656 22.0414 6.15294 21.6387C6.11077 21.2503 6.0894 20.8596 6.05821 20.47C6.01371 19.9153 5.99438 19.3594 6.00141 18.8031C6.00639 18.4163 6.01927 18.0293 6.04079 17.6431C6.06114 17.277 6.09013 16.9111 6.12805 16.5466C6.22555 15.6097 6.36171 14.6781 6.59683 13.7645C6.85143 12.7751 7.16474 11.8046 7.5959 10.8748C7.91872 10.1787 8.28619 9.50672 8.73726 8.88464C9.07297 8.42172 9.43766 7.98077 9.8328 7.56426C10.1711 7.20739 10.5292 6.87322 10.9169 6.57222C11.4627 6.14858 12.0434 5.77658 12.6555 5.45303C13.5985 4.95447 14.5978 4.61259 15.6376 4.38025C16.2497 4.2435 16.8666 4.13744 17.4922 4.08551C17.7389 4.06499 17.9856 4.03764 18.2329 4.02979C18.7441 4.01364 19.256 3.99196 19.7669 4.00302C20.4077 4.01684 21.046 4.07634 21.6813 4.1696C22.3413 4.26649 22.9926 4.39829 23.6336 4.58189C24.3176 4.77785 24.9884 5.01281 25.6222 5.3349C26.544 5.80335 27.4215 6.34309 28.1809 7.05114C28.4895 7.33891 28.7899 7.63641 29.0785 7.94396C29.696 8.60212 30.1966 9.34466 30.6405 10.1271C30.9447 10.6633 31.2036 11.2214 31.4406 11.7885C31.6682 12.3328 31.841 12.8973 32 13.481C31.1487 13.706 30.301 13.9301 29.4444 14.1566C29.3933 13.9938 29.3417 13.8338 29.2928 13.673C29.1349 13.1536 28.9238 12.6544 28.7028 12.1594C28.4693 11.6363 28.186 11.1399 27.8644 10.665C27.5973 10.2708 27.3044 9.89545 26.9694 9.55735C26.3028 8.88421 25.5568 8.31538 24.7094 7.87791C24.1541 7.59117 23.5804 7.3552 22.9824 7.1764C22.3947 7.00081 21.7952 6.87817 21.1875 6.79626C20.6816 6.72803 20.1742 6.67842 19.6628 6.67522C19.4586 6.67391 19.2541 6.65194 19.0504 6.65878C18.3463 6.68235 17.6445 6.72905 16.9482 6.84674C16.338 6.94989 15.7377 7.08882 15.1521 7.28755C14.0801 7.65111 13.1074 8.19201 12.2495 8.92727C11.7088 9.39077 11.2419 9.92382 10.8345 10.5066C10.1638 11.4659 9.70558 12.5239 9.36987 13.6382C9.16183 14.329 9.02055 15.034 8.8967 15.7436C8.81456 16.2149 8.75556 16.688 8.72321 17.1646C8.70139 17.4872 8.67987 17.8101 8.66552 18.1332C8.65074 18.4665 8.63566 18.8004 8.63771 19.1338C8.64005 19.5109 8.6522 19.8884 8.67621 20.2648C8.71545 20.8809 8.75981 21.4976 8.87166 22.1055C8.97824 22.6847 9.08614 23.2647 9.22889 23.8358C9.51174 24.968 9.93338 26.0482 10.5473 27.0478C10.9865 27.7629 11.5173 28.404 12.1434 28.9657C13.1256 29.8472 14.2653 30.4489 15.5281 30.8242C16.1528 31.0099 16.7899 31.1453 17.4397 31.2128C17.7727 31.2474 18.1071 31.2694 18.4405 31.3014C18.9268 31.348 19.4145 31.3391 19.9007 31.3173C20.9865 31.2685 22.0597 31.13 23.0983 30.7956C23.9011 30.5372 24.6417 30.1542 25.3263 29.6637C25.7465 29.3627 26.1314 29.0216 26.4902 28.6512C27.328 27.7863 27.8562 26.7657 28.0431 25.5769C28.0715 25.3962 28.0667 25.2106 28.089 25.0286C28.1269 24.7185 28.0931 24.4108 28.0551 24.1055C27.943 23.2007 27.6186 22.3818 27.0035 21.6943C26.6497 21.2986 26.2491 20.9532 25.7907 20.6782C25.7745 20.6685 25.7573 20.6603 25.7273 20.6442C25.7134 20.7095 25.6973 20.7673 25.6892 20.826C25.6096 21.4069 25.477 21.9761 25.2948 22.533C25.0073 23.4123 24.575 24.213 23.9593 24.9116C23.5941 25.3261 23.1797 25.6844 22.7115 25.9777C22.2348 26.2762 21.7176 26.487 21.175 26.6357C20.7901 26.7412 20.3992 26.8183 20.0007 26.8472C19.6761 26.8708 19.3501 26.9015 19.0255 26.8936C18.0882 26.8706 17.1836 26.6908 16.3248 26.3022C15.668 26.005 15.0919 25.5981 14.6079 25.0687C13.997 24.4005 13.614 23.6172 13.4698 22.7243C13.4352 22.5106 13.422 22.2928 13.4092 22.0762C13.3595 21.2421 13.5314 20.4527 13.9167 19.7118C14.2533 19.0648 14.724 18.5261 15.311 18.0926C15.9269 17.6377 16.6137 17.3196 17.3477 17.1027C17.8612 16.951 18.3856 16.8529 18.9192 16.7991C19.5444 16.7361 20.1708 16.6955 20.7988 16.7158C21.532 16.7393 22.2631 16.795 22.9878 16.9158C23.0206 16.9213 23.0547 16.9194 23.108 16.9219C23.0857 16.8041 23.0677 16.6923 23.0434 16.5821C22.9254 16.0493 22.7477 15.5397 22.4391 15.0829C22.0149 14.4553 21.4358 14.0395 20.7036 13.8338C20.3136 13.7242 19.9159 13.6764 19.5108 13.6547C18.9109 13.6225 18.3266 13.6922 17.7582 13.8767C17.0007 14.1226 16.3984 14.5782 15.9562 15.2393C15.9455 15.2553 15.9324 15.2705 15.9054 15.3057ZM23.1748 19.6714C22.4154 19.5013 21.671 19.4287 20.9231 19.4045C20.3736 19.3866 19.8234 19.3968 19.2743 19.447C18.8024 19.4902 18.3396 19.5733 17.8906 19.7202C17.4085 19.8779 16.9677 20.1114 16.6151 20.4843C16.0914 21.0383 15.926 21.6927 16.0992 22.4262C16.231 22.9845 16.5875 23.3861 17.0658 23.6865C17.6234 24.0368 18.2472 24.1759 18.8945 24.2185C19.4113 24.2526 19.9243 24.2035 20.4278 24.078C21.1008 23.9101 21.659 23.5676 22.0925 23.0208C22.4607 22.5562 22.7029 22.0343 22.8669 21.4715C22.9915 21.0438 23.0708 20.6069 23.1279 20.166C23.1488 20.0045 23.1589 19.8416 23.1748 19.6714Z"></path></svg>