<svg xmlns="http://www.w3.org/2000/svg" viewBox="0 0 210 210"><path d="M172.692,69.6A17.674,17.674,0,0,0,160.26,57.083c-10.973-2.961-54.968-2.961-54.968-2.961s-44,0-54.978,2.961A17.671,17.671,0,0,0,37.872,69.6c-2.94,11.046-2.94,34.083-2.94,34.083s0,23.1,2.94,34.094A17.672,17.672,0,0,0,50.3,150.292c10.972,2.929,54.978,2.929,54.978,2.929s43.995,0,54.967-2.961a17.673,17.673,0,0,0,12.443-12.516c2.94-11.046,2.94-34.093,2.94-34.093S175.632,80.645,172.692,69.6ZM92.01,125.386V83.543l36.75,20.927Z"></path></svg>